<svg width="1000" height="300" viewBox="0 0 1000 300" fill="none" xmlns="http://www.w3.org/2000/svg">
<g clip-path="url(#clip0_1_2)">
<rect width="1000" height="300" fill="#CE2124"/>
<path d="M367.448 201.432H377.031V271.089H367.547V220.401L368.318 223.474L357.292 259.198H351.391L340.391 224.422L341.385 220.401V271.089H331.656V201.432H341.531L354.318 242.193L367.448 201.432ZM386.073 201.432H396.568V271.089H386.073V201.432ZM391.057 260.979H416.5V271.089H391.057V260.979ZM391.057 231.422H414.094V241.526H391.057V231.422ZM391.057 201.432H416.5V211.536H391.057V201.432ZM432.214 207.188H442.693V271.089H432.214V207.188ZM420.276 201.432H454.63V211.453H420.276V201.432ZM469.474 201.432H477.812L494.198 271.089H483.422L473.646 220.547L463.917 271.089H453.141L469.474 201.432ZM463.917 248.245H483.75V258.057H463.917V248.245ZM499.891 201.432H510.385V271.089H499.891V201.432ZM504.776 261.078H529.354V271.089H504.776V261.078ZM569.344 242.964C567.219 239.479 565.484 236.438 564.177 233.839C562.87 231.24 561.839 228.557 561.089 225.797C560.333 223.031 559.958 220.156 559.958 217.146C559.958 211.948 561.318 207.922 564.016 205.094C566.708 202.266 570.536 200.859 575.474 200.859C580.427 200.859 584.255 202.25 586.937 205.031C589.62 207.813 590.958 211.766 590.958 216.901V222.458H580.51V216.901C580.51 214.854 580.089 213.286 579.219 212.161C578.354 211.047 577.109 210.49 575.474 210.49C573.891 210.49 572.646 211.063 571.745 212.208C570.849 213.37 570.406 215.005 570.406 217.146C570.406 219.255 570.687 221.38 571.276 223.536C571.844 225.698 572.661 227.854 573.729 230.031C574.807 232.203 576.146 234.557 577.781 237.078L599.87 271.089H586.839L569.344 242.964ZM575.771 244.026C571.974 244.026 569.016 244.828 566.906 246.448C564.797 248.047 563.75 250.318 563.75 253.266C563.75 256.141 564.536 258.365 566.12 259.953C567.693 261.521 569.917 262.323 572.745 262.323C575.557 262.323 577.958 261.26 579.937 259.151C581.917 257.057 583.438 253.984 584.484 249.948C585.547 245.891 586.073 241.036 586.073 235.344H596.026C596.026 243.01 595.047 249.583 593.068 255.047C591.073 260.51 588.214 264.661 584.437 267.521C580.677 270.38 576.13 271.807 570.833 271.807C567.219 271.807 564.125 271.089 561.547 269.63C558.964 268.177 556.984 266.052 555.625 263.271C554.266 260.49 553.599 257.156 553.599 253.266C553.599 247.969 555.182 243.729 558.354 240.578C561.526 237.406 566.01 235.589 571.797 235.115L575.771 244.026ZM646.714 201.432H657.193V271.089H646.714V201.432ZM624.578 201.432H635.073V271.089H624.578V201.432ZM630.432 231.813H652.797V241.719H630.432V231.813ZM681.818 271.807C678.401 271.807 675.49 271.135 673.057 269.813C670.635 268.484 668.786 266.557 667.526 264.021C666.271 261.49 665.63 258.417 665.63 254.802V201.432H676.13V255.177C676.13 257.156 676.62 258.693 677.615 259.786C678.599 260.87 680.005 261.406 681.818 261.406C683.682 261.406 685.104 260.87 686.12 259.786C687.115 258.693 687.625 257.156 687.625 255.177V201.432H698.151V254.802C698.151 258.417 697.516 261.49 696.24 264.021C694.964 266.557 693.099 268.484 690.667 269.813C688.229 271.135 685.271 271.807 681.818 271.807ZM710.417 231.615H723.12C724.427 231.615 725.557 231.37 726.521 230.88C727.469 230.375 728.208 229.672 728.698 228.771C729.187 227.854 729.432 226.745 729.432 225.438V218.01C729.432 216.641 729.187 215.443 728.698 214.448C728.208 213.432 727.469 212.682 726.521 212.161C725.557 211.651 724.427 211.406 723.12 211.406H710.417V201.38H722.354C726.078 201.38 729.286 202.005 731.932 203.229C734.583 204.458 736.609 206.271 738.016 208.641C739.422 211.031 740.125 213.875 740.125 217.193V225.339C740.125 228.755 739.422 231.682 738.016 234.135C736.609 236.568 734.568 238.432 731.901 239.708C729.234 240.984 726.047 241.625 722.354 241.625H710.417V231.615ZM705.625 201.38H715.974V271.089H705.625V201.38ZM721.24 239.464L730.969 237.276L742.089 271.089H730.74L721.24 239.464ZM756.786 261.078H767.562C769.198 261.078 770.453 260.573 771.323 259.594C772.208 258.594 772.646 257.203 772.646 255.422V217.047C772.646 215.266 772.208 213.875 771.323 212.911C770.453 211.932 769.198 211.453 767.562 211.453H756.786V201.432H768.052C771.24 201.432 773.969 202.021 776.245 203.214C778.5 204.391 780.234 206.109 781.443 208.365C782.635 210.604 783.245 213.333 783.245 216.526V255.995C783.245 259.151 782.635 261.88 781.443 264.135C780.234 266.411 778.5 268.125 776.214 269.323C773.937 270.5 771.193 271.089 768.005 271.089H756.786V261.078ZM749.937 201.432H760.432V271.089H749.937V201.432ZM802.391 201.432H810.729L827.109 271.089H816.339L806.557 220.547L796.828 271.089H786.057L802.391 201.432ZM796.828 248.245H816.661V258.057H796.828V248.245ZM845.406 271.807C841.958 271.807 839.016 271.104 836.547 269.698C834.094 268.292 832.214 266.26 830.922 263.615C829.63 260.964 828.979 257.776 828.979 254.031V218.484C828.979 214.76 829.63 211.552 830.922 208.891C832.214 206.224 834.094 204.193 836.547 202.807C839.016 201.417 841.958 200.714 845.406 200.714C848.891 200.714 851.865 201.417 854.318 202.807C856.786 204.193 858.651 206.224 859.943 208.891C861.25 211.552 861.891 214.76 861.891 218.484V222.802H851.26V218.484C851.26 216.948 851.031 215.641 850.594 214.531C850.135 213.432 849.479 212.599 848.599 212.026C847.714 211.453 846.651 211.161 845.406 211.161C844.198 211.161 843.167 211.453 842.302 212.026C841.432 212.599 840.781 213.432 840.307 214.531C839.849 215.641 839.62 216.948 839.62 218.484V254.031C839.62 255.568 839.849 256.88 840.307 257.958C840.781 259.052 841.432 259.87 842.302 260.458C843.167 261.031 844.198 261.307 845.406 261.307C846.651 261.307 847.714 261.031 848.599 260.458C849.479 259.87 850.135 259.052 850.594 257.958C851.031 256.88 851.26 255.552 851.26 253.984V249.719H861.891V253.984C861.891 257.729 861.25 260.917 859.943 263.599C858.651 266.26 856.786 268.292 854.318 269.698C851.865 271.104 848.891 271.807 845.406 271.807ZM878.99 271.089H868.495V201.432H878.99V271.089ZM887.51 201.432H898.005V271.089H887.51V201.432ZM892.401 261.078H916.974V271.089H892.401V261.078ZM933.604 271.089H923.104V201.432H933.604V271.089ZM950.411 239.563L966.318 201.432H978.01L950.036 259.021L950.411 239.563ZM942.12 201.432H952.62V271.089H942.12V201.432ZM956.068 233.432L963.245 226.302L980.203 271.089H968.526L956.068 233.432Z" fill="#2B2A29"/>
<path fill-rule="evenodd" clip-rule="evenodd" d="M578.151 171.75C578.146 171.75 578.141 171.75 578.135 171.75H473.594C471.516 171.75 469.818 170.052 469.818 167.969V35.1458C469.818 33.0677 471.516 31.3698 473.594 31.3698H518.375C520.453 31.3698 522.151 33.0677 522.151 35.1458V129.464H578.333C580.417 129.464 582.115 131.161 582.115 133.245V148.88L630.828 33.6771C631.432 32.2448 632.755 31.3698 634.307 31.3698H678.328C679.88 31.3698 681.203 32.2448 681.807 33.6771L697.458 70.6823C700.557 66.5417 703.115 62.0052 704.734 57.0781C705.281 54.9896 705.531 52.8542 705.432 50.6927C705.344 48.7083 704.307 46.9167 703.099 45.4479C702.193 44.4062 701.677 43.6094 700.276 43.0937L696.208 41.5937C694.604 41 693.62 39.474 693.75 37.7656C693.875 36.0573 695.073 34.6927 696.75 34.3437L704.542 32.724C705.198 32.5885 705.797 32.6198 706.438 32.8177L710.505 34.0885C711.932 34.5365 713.38 34.9271 714.818 35.3333C719.161 36.5677 723.964 38.349 727.589 41.1042C730.214 43.0937 732.583 45.4167 734.49 48.1094C734.547 48.1875 734.594 48.2604 734.641 48.3437C736.708 51.776 737.849 55.5573 737.547 59.5885C737.276 63.1875 736.323 66.6719 734.859 69.9687C730.516 79.7552 724.068 88.4792 716.682 96.1823C714.74 98.2031 712.766 100.188 710.755 102.135L733.578 156.099C733.609 156.005 733.651 155.911 733.693 155.812L748.109 123.177C748.563 122.156 749.349 121.448 750.411 121.109C751.479 120.766 752.526 120.885 753.49 121.453C765.484 128.542 781.453 133.073 795.401 133.073C798.755 133.073 804.13 132.917 807.245 131.51C808.146 131.104 808.891 130.688 808.891 129.641C808.891 127.286 801.833 125.391 800.208 124.953C796.417 123.927 792.51 123.156 788.661 122.354C784.078 121.401 779.5 120.427 774.974 119.214C752.927 113.323 735.458 102.281 735.458 76.8906C735.458 62.9948 741.479 50.8594 752.385 42.2812C765.911 31.651 784.297 28.3333 801.094 28.3333C818.464 28.3333 837.802 31.8385 853.036 40.3906C854.714 41.3333 855.411 43.3594 854.672 45.1354L841.203 77.5833C840.786 78.5885 840.047 79.2969 839.021 79.6771C838 80.0573 836.974 79.9948 836.005 79.5052C825.078 73.9635 813.068 70.0469 800.714 70.0469C798.125 70.0469 787.224 70.1875 787.224 74.6146C787.224 76.5937 794.495 78.4896 795.854 78.8385C799.661 79.8125 803.568 80.5417 807.422 81.3125C812.01 82.2292 816.589 83.1771 821.115 84.3594C843.026 90.0781 860.656 100.99 860.656 126.224C860.656 140.021 854.557 152.125 843.734 160.688C830.208 171.38 811.865 174.781 795.021 174.781C776.234 174.781 751.906 170.667 735.568 160.802L737.974 166.495C738.484 167.698 738.365 168.969 737.641 170.057C736.922 171.146 735.797 171.75 734.495 171.75H690.469C688.917 171.75 687.583 170.865 686.984 169.427L671.828 133.172C666.161 136.953 660.385 140.578 654.552 144.068C648.292 147.818 642 151.5 635.667 155.125L629.839 169.396C629.245 170.849 627.906 171.75 626.339 171.75H578.151ZM660.688 106.531L658.068 100.26L653.328 111.865C655.745 110.141 658.146 108.401 660.536 106.641C660.589 106.604 660.635 106.568 660.688 106.531ZM401.115 174.781C380.724 174.781 360.615 168.401 345.526 154.344C330.708 140.542 323.333 121.714 323.333 101.557C323.333 81.401 330.708 62.5729 345.526 48.7708C360.615 34.7187 380.724 28.3333 401.115 28.3333C425.583 28.3333 448.516 36.5833 463.693 56.375C464.901 57.9479 464.687 60.1771 463.208 61.4948L434.937 86.7344C434.13 87.4531 433.172 87.7708 432.094 87.6771C431.016 87.5833 430.125 87.1042 429.453 86.2552C422.729 77.724 414.568 72.1302 403.391 72.1302C385.802 72.1302 376.052 84.5469 376.052 101.557C376.052 118.573 385.802 130.984 403.391 130.984C414.568 130.984 422.729 125.391 429.453 116.865C430.125 116.016 431.016 115.531 432.094 115.438C433.172 115.344 434.13 115.667 434.937 116.385L463.208 141.62C464.687 142.943 464.901 145.167 463.693 146.74C448.516 166.536 425.583 174.781 401.115 174.781ZM919.682 174.781C900.74 174.781 876.172 170.599 859.833 160.562C858.208 159.568 857.583 157.557 858.354 155.812L872.776 123.177C873.224 122.156 874.01 121.448 875.078 121.109C876.141 120.766 877.193 120.885 878.151 121.453C890.146 128.542 906.115 133.073 920.063 133.073C923.417 133.073 928.792 132.917 931.906 131.51C932.807 131.104 933.552 130.688 933.552 129.641C933.552 127.286 926.495 125.391 924.87 124.953C921.078 123.927 917.172 123.156 913.323 122.354C908.74 121.401 904.161 120.427 899.641 119.214C877.594 113.323 860.12 102.281 860.12 76.8906C860.12 62.9948 866.141 50.8594 877.052 42.2812C890.573 31.651 908.958 28.3333 925.755 28.3333C943.125 28.3333 962.464 31.8385 977.698 40.3906C979.375 41.3333 980.073 43.3594 979.339 45.1354L965.865 77.5833C965.448 78.5885 964.708 79.2969 963.682 79.6771C962.661 80.0573 961.635 79.9948 960.667 79.5C949.74 73.9635 937.729 70.0469 925.375 70.0469C922.792 70.0469 911.891 70.1875 911.891 74.6146C911.891 76.5937 919.156 78.4896 920.516 78.8385C924.323 79.8125 928.229 80.5417 932.083 81.3125C936.672 82.2292 941.25 83.1771 945.776 84.3594C967.688 90.0781 985.318 100.99 985.318 126.224C985.318 140.021 979.219 152.125 968.396 160.688C954.87 171.38 936.531 174.781 919.682 174.781Z" fill="#CE2124"/>
<path d="M401.115 171.005C427.109 171.005 447.599 161.516 460.693 144.443L432.422 119.203C424.641 129.073 415.344 134.766 403.391 134.766C384.797 134.766 372.271 121.859 372.271 101.557C372.271 81.2552 384.797 68.3542 403.391 68.3542C415.344 68.3542 424.641 74.0469 432.422 83.9115L460.693 58.6771C447.599 41.599 427.109 32.1146 401.115 32.1146C358.422 32.1146 327.115 60.7656 327.115 101.557C327.115 142.354 358.422 171.005 401.115 171.005Z" fill="#FEFEFE"/>
<path d="M473.594 167.969H578.333V133.245H518.375V35.1458H473.594V167.969Z" fill="#FEFEFE"/>
<path d="M690.469 167.969L658.026 90.3646L626.339 167.969H578.146L634.307 35.1458H678.328L734.495 167.969H690.469Z" fill="#FEFEFE"/>
<path d="M795.021 171.005C836.198 171.005 856.875 150.51 856.875 126.224C856.875 77.2396 783.448 90.5208 783.448 74.6146C783.448 70.0625 787.62 66.2656 800.714 66.2656C812.286 66.2656 824.62 69.4896 837.714 76.1302L851.182 43.6875C837.333 35.9062 818.927 32.1146 801.094 32.1146C759.917 32.1146 739.234 52.224 739.234 76.8906C739.234 126.417 812.667 112.911 812.667 129.641C812.667 134.193 808.115 136.849 795.401 136.849C780.792 136.849 764.094 132.109 751.568 124.708L737.146 157.344C750.432 165.505 772.823 171.005 795.021 171.005Z" fill="#FEFEFE"/>
<path d="M919.682 171.005C960.859 171.005 981.536 150.51 981.536 126.224C981.536 77.2396 908.109 90.5208 908.109 74.6146C908.109 70.0625 912.281 66.2656 925.375 66.2656C936.948 66.2656 949.281 69.4896 962.375 76.1302L975.844 43.6875C961.995 35.9062 943.589 32.1146 925.755 32.1146C884.583 32.1146 863.896 52.224 863.896 76.8906C863.896 126.417 937.328 112.911 937.328 129.641C937.328 134.193 932.776 136.849 920.063 136.849C905.453 136.849 888.755 132.109 876.229 124.708L861.807 157.344C875.094 165.505 897.484 171.005 919.682 171.005Z" fill="#FEFEFE"/>
<path d="M705.312 36.4271L709.375 37.6979C710.786 38.1406 712.297 38.5469 713.786 38.9687C719.073 40.474 722.818 42.224 725.302 44.1094C727.792 46 729.823 48.0573 731.406 50.2917C733.214 53.2969 734 56.3021 733.776 59.3073C733.552 62.3125 732.76 65.3542 731.406 68.4323C727.568 77.0625 721.745 85.4427 713.953 93.5677C706.156 101.693 697.177 109.724 687.01 117.656C676.615 125.594 665.151 133.318 652.609 140.828C640.073 148.339 627.026 155.792 613.469 163.182C611.885 164.031 610.25 164.823 608.557 165.557C606.859 166.286 604.771 166.958 602.281 167.573C600.479 167.964 599.12 167.885 598.219 167.344C597.766 167.036 597.313 166.786 596.865 166.594C596.411 166.406 595.505 166.38 594.151 166.536C593.474 166.693 592.797 166.635 592.115 166.365C591.438 166.094 590.875 165.88 590.422 165.729C589.969 165.417 589.292 165.151 588.391 164.922C587.484 164.688 587.146 164.344 587.375 163.88C587.375 163.651 586.807 163.458 585.682 163.302C583.646 162.766 581.073 162.224 580.849 161.844C580.625 161.458 582.516 160.953 583.646 160.182C585.682 158.797 587.771 157.411 589.917 156.021C592.063 154.635 594.38 153.286 596.865 151.974C603.641 148.047 610.307 144.141 616.859 140.25C623.411 136.359 629.734 132.411 635.833 128.401C645.323 122.167 654.307 115.927 662.776 109.688C671.25 103.448 678.766 96.974 685.318 90.276C690.51 84.9583 695.198 79.6615 699.38 74.3854C703.563 69.1094 706.552 63.6979 708.359 58.151C709.036 55.6094 709.323 53.0625 709.208 50.526C709.094 47.9844 708.021 45.4792 705.984 43.0156C704.859 41.7031 703.927 40.4062 701.583 39.5469L697.516 38.0469L705.312 36.4271ZM727.339 65.0833C726.438 66.625 725.646 68.1667 724.969 69.7031C724.286 71.2448 723.385 72.7865 722.255 74.3281C720.448 77.2552 718.245 80.1458 715.646 82.9948C713.047 85.8437 710.505 88.6927 708.021 91.5417C701.698 98.7083 694.182 105.641 685.484 112.344C676.786 119.047 667.354 125.708 657.188 132.333C651.99 135.724 646.682 139.016 641.26 142.214C635.833 145.411 630.297 148.625 624.651 151.859C620.812 154.016 617.026 156.177 613.297 158.333C609.573 160.49 605.448 162.568 600.932 164.573C600.479 164.724 599.969 164.922 599.406 165.151C598.839 165.38 598.781 165.573 599.234 165.729C600.135 165.958 600.813 165.943 601.266 165.672C601.719 165.401 602.172 165.188 602.625 165.036C606.24 163.573 609.401 162.047 612.115 160.469C614.823 158.891 617.646 157.292 620.583 155.677C624.427 153.443 628.323 151.188 632.276 148.917C636.229 146.646 640.13 144.349 643.969 142.042C650.297 138.344 656.281 134.625 661.932 130.891C667.578 127.151 673 123.323 678.198 119.391C688.365 111.922 697.286 104.349 704.969 96.6875C712.651 89.026 719.094 81.1458 724.286 73.0573C724.969 71.7448 725.589 70.4375 726.151 69.125C726.719 67.8177 727.115 66.4687 727.339 65.0833ZM666 112.344C666.224 112.422 666.448 112.458 666.677 112.458C666.901 112.38 667.016 112.323 667.016 112.286C667.016 112.25 667.13 112.193 667.354 112.109C668.479 111.188 669.672 110.266 670.911 109.339C672.156 108.411 673.339 107.49 674.469 106.568C681.25 100.943 687.464 95.2604 693.109 89.526C698.755 83.7865 703.5 77.9115 707.344 71.901C708.927 69.3594 710.281 66.7969 711.411 64.2135C712.542 61.6354 713.443 59 714.12 56.3021C714.573 54.375 714.458 52.6823 713.786 51.2187C713.333 51.526 713.104 51.7969 713.104 52.026C713.333 55.2604 712.714 58.4583 711.24 61.6146C709.771 64.776 708.135 67.9323 706.328 71.0937C704.745 73.7135 702.938 76.2917 700.901 78.8333C698.87 81.375 696.724 83.8802 694.469 86.3437C691.302 89.8125 688.083 93.2031 684.807 96.5104C681.531 99.8229 677.859 103.141 673.792 106.453C672.438 107.453 671.141 108.432 669.896 109.401C668.651 110.359 667.354 111.344 666 112.344Z" fill="#2B2A29"/>
<path fill-rule="evenodd" clip-rule="evenodd" d="M578.146 167.969L602.563 167.927L602.385 167.078L580.823 161.63L578.146 167.969Z" fill="#2B2A29"/>
<path d="M304.5 181.5L0.5 300H304.5V181.5Z" fill="#2B2A29" stroke="black"/>
<path d="M216.963 47.3033L216.79 47.2124C211.709 44.5759 206.172 42.5625 200.924 40.2556L180.377 31.2019C161.945 23.2286 160.43 21.7747 140.572 27.8134C135.963 29.7321 137.198 31.3254 134.49 33.9152C123.676 44.2572 114.516 55.7247 105.181 67.2827C85.9135 91.1406 86.1928 118.693 83.6997 146.956C77.3661 139.257 69.8442 130.694 58.4005 133.1C49.2653 135.111 33.3289 142.637 24.4378 146.408C10.9579 152.125 12.8339 157.458 16.3325 169.824L21.8282 189.614C22.5891 192.458 23.759 196.15 24.2014 198.997C16.6851 205.561 19.6295 209.487 22.6228 217.123C28.1386 231.194 34.5881 228.77 47.0479 223.729L64.0694 216.85C64.4701 217.702 64.7998 218.612 65.1375 219.493C59.001 222.054 49.0257 223.356 52.2559 231.244C23.3674 228.89 13.7326 266.09 38.9926 277.088C55.0946 284.098 74.1589 270.59 72.9777 253.871C75.0434 253.248 76.6655 252.568 78.6415 251.687C87.8803 247.569 97.5722 244.215 106.834 240.193C108.156 241.135 109.303 242.558 110.568 243.423C120.78 250.414 134.061 249.26 142.691 239.986C164.291 216.775 129.706 184.23 106.033 208.949C103.374 202.437 99.6327 205.715 95.5121 207.165C93.6846 207.808 92.2743 208.249 90.5627 209.221L89.4946 206.577C91.8453 205.824 101.526 202.169 103.847 200.98C109.194 198.242 111.396 193.329 111.559 187.911C111.493 187.356 111.449 187.188 111.536 186.618C119.299 180.876 121.605 166.557 112.927 160.647L115.941 127.484C117.236 113.796 116.744 110.977 124.428 98.6288C133.893 83.4168 143.994 68.6009 153.624 53.4904C155.002 51.3273 156.516 48.8256 158.179 46.8853C161.364 47.8313 164.876 48.6623 168.126 49.5612L198.839 57.9913C203.127 59.1774 207.241 60.1238 211.526 61.4861C211.704 66.5109 210.266 93.6605 210.139 93.8525C209.489 93.9126 207.476 93.1559 206.647 92.9705C185.842 88.354 184.136 98.04 177.613 113.162C177.041 116.138 170.986 125.129 173.483 127.462C177.768 131.467 180.232 124.018 181.428 121.516C184.012 116.109 186.722 111.103 189.325 105.858C191.637 101.198 193.282 99.727 198.591 99.9162C208.549 100.132 211.998 104.113 218.135 110.433C219.191 119.493 216.591 120.569 209.621 126.212L199.724 134.311C196.909 136.58 191.252 140.074 197.453 142.473C199.683 141.989 218.596 130.165 221.186 128.461C227.324 124.423 228.843 109.946 224.345 104.638C223.177 103.238 221.757 102.194 220.737 100.7C220.746 99.9259 222.113 94.4287 222.413 93.1578L228.5 68.4591C229.328 65.1872 232.025 57.4276 231.292 54.4734C229.629 47.7765 223.454 45.8337 216.963 47.3033ZM143.866 33.4544C145.156 33.2424 146.453 33.6928 147.299 34.6468C148.145 35.6014 148.42 36.9244 148.027 38.1495C147.594 39.5016 146.419 40.5121 144.997 40.7556C144.069 40.914 143.121 40.7312 142.337 40.2416C141.027 39.4232 140.385 37.887 140.725 36.3805C141.064 34.8747 142.314 33.7103 143.866 33.4544ZM152.184 30.4271C164.258 27.8038 190.381 42.3547 201.67 47.2699L208.596 50.2958C209.512 50.6965 211.276 51.5337 212.159 51.8279C211.849 52.5636 211.227 54.2115 210.902 54.8348C207.468 54.2955 203.652 52.6522 200.246 51.8506C192.371 49.9962 184.687 47.7372 176.917 45.5433L161.187 41.2571C159.118 40.7122 155.741 40.0172 153.883 39.3897C155.392 33.6833 151.916 32.0508 151.979 30.5106L152.184 30.4271ZM135.382 41.2943C137.569 45.1462 139.318 45.8583 143.611 46.8614L121.411 74.9424C115.13 82.9323 109.041 91.9486 101.872 99.1319C95.8992 105.117 102.749 115.731 110.812 113.133C110.676 117.422 110.002 122.996 109.616 127.352L107.546 152.026C107.273 155.488 106.752 158.966 106.551 162.429C106.347 165.959 114.251 164.474 111.748 175.625C111.605 176.976 110.814 179.443 109.822 180.41L109.444 180.538C108.198 178.962 106.356 172.765 105.407 171.304C103.927 169.027 91.6559 154.765 89.4016 152.883L89.4305 152.689C89.9355 149.165 89.9147 145.09 90.1859 141.523C94.3405 86.8929 99.6808 80.7852 135.382 41.2943ZM144.49 55.9656C140.257 64.0026 132.065 75.6105 126.639 83.7351C123.661 88.037 119.193 96.5853 115.904 100.12C115.788 99.8526 115.417 99.0602 115.381 98.8247C114.503 97.7987 113.515 97.2711 112.442 96.4386C113.61 95.2105 115.144 93.1056 116.241 91.6976L138.85 62.9034C139.622 61.9326 143.737 56.5072 144.49 55.9656ZM220.381 53.0103C221.757 52.7999 223.126 53.3312 223.961 54.4001C224.795 55.4685 224.965 56.9076 224.405 58.1613C223.844 59.4155 222.641 60.2888 221.26 60.4452C220.37 60.5451 219.479 60.3388 218.74 59.8614C217.429 59.0136 216.803 57.4513 217.167 55.9323C217.531 54.4133 218.809 53.2514 220.381 53.0103ZM108.191 101.827C109.24 101.616 110.311 101.978 110.986 102.773C111.66 103.568 111.832 104.668 111.432 105.644C111.032 106.62 110.126 107.316 109.067 107.46C107.501 107.673 106.071 106.635 105.835 105.114C105.598 103.594 106.641 102.139 108.191 101.827ZM217.897 66.0287C219.757 66.4862 220.634 66.5968 222.531 66.0034L219.166 80.1191C218.735 81.8708 218.046 85.0602 217.504 86.6957C217.456 87.9076 216.91 88.8315 216.393 89.9476C217.146 85.2715 217.287 66.8098 217.897 66.0287ZM58.6271 138.927C66.255 137.585 69.9695 141.255 74.7337 146.283L82.5503 154.617C85.3143 157.596 98.2536 171 99.838 174.119C102.22 178.81 109.374 191.606 101.749 195.073C97.6196 196.95 93.1514 198.629 88.9343 200.333L62.7181 210.935L59.851 212.093C56.6972 209.041 43.526 193.618 40.2665 192.506C36.8977 193.937 33.408 195.257 30.0024 196.653C28.3728 191.831 27.1103 185.492 25.6921 180.46L21.7157 166.287C20.6388 162.38 17.7998 155.672 23.345 153.22C27.4884 151.388 31.7867 149.813 35.99 148.08L51.0649 141.976C52.8328 141.26 57.0011 139.436 58.6271 138.927ZM39.3304 199.253C43.2651 202.47 50.8336 210.791 53.788 214.543L38.5134 220.714C29.2476 224.138 29.1103 216.554 26.1289 209.684C25.3147 207.809 25.7194 206.671 26.6034 204.941C29.2628 203.023 36.0447 200.57 39.3304 199.253ZM118.818 207.474C128.261 204.001 138.635 208.626 141.983 217.802C145.332 226.979 140.386 237.229 130.939 240.69C121.5 244.148 111.142 239.521 107.797 230.354C104.451 221.186 109.385 210.945 118.818 207.474ZM43.3608 238.213C52.9281 235.169 63.0384 240.283 65.888 249.609C68.7369 258.934 63.2358 268.904 53.6299 271.823C44.1154 274.714 34.1576 269.593 31.3352 260.356C28.5126 251.118 33.8841 241.229 43.3608 238.213ZM101.945 216.615C99.7407 223.872 100.679 228.648 103.571 235.326L72.2955 247.962C71.7427 246.522 70.7657 244.451 70.3312 243.1C67.5221 239.253 64.3623 235.812 60.0501 233.541L101.945 216.615Z" fill="#EBE5DF"/>
<path d="M67.8987 184.06L88.9063 175.53C91.5345 174.437 92.4661 171.539 90.7518 169.405C86.1681 163.785 80.85 158.775 76.06 153.311C71.4109 148.009 68.0316 142.061 60.1546 143.005L45.3771 148.966C42.0873 150.289 37.3339 151.095 36.4105 154.374L48.0699 183.232C53.1559 184.945 62.4951 186.35 67.8987 184.06ZM60.4591 148.926L61.8319 148.372C65.315 150.023 68.9368 154.652 71.681 157.581L80.4565 166.878C81.7276 168.216 83.2691 169.976 84.5545 171.193C79.123 173.495 73.4067 175.693 67.9149 177.915C61.3534 180.446 59.4208 179.104 52.4576 177.89L43.5204 155.77C48.7281 153.661 55.2882 150.786 60.4591 148.926Z" fill="#EBE5DF"/>
<path d="M129.028 237.368C136.809 234.756 141.152 226.642 138.732 219.236C136.312 211.83 128.045 207.931 120.257 210.524C112.454 213.121 108.091 221.248 110.515 228.668C112.939 236.088 121.232 239.984 129.028 237.368ZM123.148 215.819C127.836 214.874 132.298 217.727 133.136 222.204C133.973 226.681 130.871 231.101 126.193 232.097C121.476 233.1 116.953 230.245 116.108 225.732C115.265 221.219 118.423 216.772 123.148 215.819Z" fill="#EBE5DF"/>
<path d="M51.3634 269.172C59.4054 267.421 64.6044 259.647 62.9613 251.831C61.3182 244.016 53.4573 239.134 45.4276 240.943C37.4399 242.742 32.3026 250.485 33.9373 258.26C35.5724 266.035 43.3639 270.914 51.3634 269.172ZM46.5815 247.152C49.496 246.433 52.5458 247.295 54.5634 249.408C56.5809 251.522 57.2529 254.558 56.3228 257.356C55.3924 260.152 53.0035 262.277 50.0713 262.914C45.6266 263.88 41.2915 261.195 40.3375 256.887C39.3838 252.578 42.1648 248.242 46.5815 247.152Z" fill="#EBE5DF"/>
</g>
<defs>
<clipPath id="clip0_1_2">
<rect width="1000" height="300" fill="white"/>
</clipPath>
</defs>
</svg>
