<?xml version="1.0" encoding="utf-8" ?>
<svg xmlns="http://www.w3.org/2000/svg" xmlns:xlink="http://www.w3.org/1999/xlink" width="1024" height="1024">
	<path fill="#FEFEFE" d="M494.344 76.0683C505.318 75.5216 516.438 75.4311 527.426 75.5138C533.128 86.3565 537.404 98.118 541.636 109.598C552.082 110.379 563.048 110.604 573.317 112.609C579.326 102.635 585.393 92.6972 591.519 82.7954C603.054 84.1683 614.961 86.4991 626.266 89.2176C627.587 96.2905 628.062 103.594 628.868 110.748C629.448 115.893 630.46 121.215 630.562 126.384C640.581 129.634 651.012 132.484 660.818 136.298C668.569 127.095 677.86 118.99 684.885 109.203C696.073 114.299 707.29 119.333 718.534 124.306C716.107 136.038 714.314 149.046 714.478 161.032C723.304 166.797 732.348 172.17 741.212 177.861C750.189 169.968 760.582 163.368 770.031 155.991C779.341 164.196 788.784 171.925 798.872 179.155C795.386 190.457 791.408 201.628 787.591 212.823C795.584 220.859 802.796 229.667 810.571 237.916C822.175 234.915 833.122 229.953 844.441 226.103C851.677 235.144 859.294 243.866 866.641 252.816C860.038 263.878 852.836 274.685 847.275 286.322C852.847 294.621 858.227 303.046 863.411 311.592C875.612 310.703 887.771 309.784 899.833 307.66C905.709 317.168 910.008 328.407 914.693 338.589C906.966 346.298 896.007 356.116 889.537 364.604C891.665 373.866 894.829 383.584 898.679 392.282C910.377 394.574 922.375 395.628 934.19 397.207C937.547 408.473 939.529 420.144 942.863 431.396C932.532 438.412 922.65 446.063 912.296 453.04C913.462 462.551 914.453 472.083 915.27 481.63C926.998 485.965 938.959 489.388 950.55 494.157C950.446 506.134 950.437 518.112 950.522 530.089C938.633 533.846 926.764 538.396 915.189 543.046C914.381 553.391 913.113 563.71 912.037 574.03C921.995 580.513 932.343 586.666 942.13 593.359C939.196 603.836 936.626 614.607 934.61 625.303C922.33 627.028 909.784 629.865 897.475 630.917C895.05 640.877 891.359 651.355 887.438 660.845C893.328 665.046 907.007 679.897 912.428 685.728C906.956 695.143 902.295 705.007 898.496 715.213C887.06 713.645 875.473 711.563 863.968 710.692C858.388 721.709 851.821 732.068 844.692 742.14C850.811 750.375 859.252 760.913 864.385 769.462C857.617 779.752 850.353 789.706 842.618 799.29C831.993 795.78 821.449 790.875 811.36 786.027C803.48 794.512 795.47 803.887 786.485 811.205C790.355 821.798 794.648 832.189 798.643 842.726C788.812 850.169 779.922 858.813 770.001 866.147C761.346 860.319 748.257 852.828 740.926 845.83C731.733 852.167 722.146 858.253 712.336 863.591C713.373 875.306 714.588 887.852 717.719 899.212C707.037 904.918 695.806 910.856 684.466 915.102C676.741 905.956 668.393 897.249 660.82 887.998C650.974 891.739 641.262 895.199 631.117 898.027C629.685 909.794 627.587 922.295 627.437 934.138C615.579 936.676 603.516 938.952 591.798 942.072C585.424 931.782 579.676 921.125 573.413 910.769C563.108 912.252 552.662 913.785 542.247 914.21C538.103 925.533 532.827 937.078 529.872 948.751C518.112 948.225 506.255 948.506 494.481 948.503C491.189 937.094 485.845 926.51 482.706 915.096C480.854 914.893 479 914.712 477.144 914.553C468.302 913.482 459.414 912.547 450.622 911.116C444.32 921.123 438.597 931.659 433.01 942.083C421.098 939.245 409.168 936.48 397.222 933.788C395.834 922.012 394.133 910.161 393.431 898.328C383.241 894.14 372.534 891.163 362.289 887.065C354.404 895.898 346.728 904.915 339.268 914.108C328.57 908.872 317.785 903.817 306.916 898.946C308.434 887.092 309.125 875.132 311.27 863.355C302.275 857.238 292.75 851.886 283.7 845.839C273.523 852.47 263.594 859.206 253.885 866.513C243.83 859.863 234.636 851.505 225.467 843.696C228.036 832.224 233.101 820.524 237.985 809.849C229.365 802.009 221.339 793.515 213.319 785.071C202.472 789.995 191.246 794.04 180.369 798.912C172.958 790.073 165.912 780.729 159.029 771.472C166.209 762.017 172.121 750.781 177.945 740.439C171.53 731.167 165.81 721.432 160.007 711.772C148.752 713.81 137.422 715.357 126.177 717.486C120.631 707.13 115.314 696.178 110.943 685.275C119.144 676.991 127.118 667.807 135.967 660.277C132.55 650.354 128.771 640.428 125.625 630.435C113.546 628.666 101.432 627.145 89.2912 625.874C85.7744 615.053 84.3901 603.567 81.953 592.48C91.2093 585.329 101.778 577.457 112.511 572.721C110.432 563.355 109.628 552.654 109.379 543.064C98.0431 537.667 85.682 534.113 73.9439 529.662C73.3848 517.966 73.8129 506.201 73.7996 494.493C85.581 490.528 97.2931 486.36 108.931 481.992C109.608 472.324 110.523 461.953 112.717 452.521C102.363 445.907 92.1515 439.072 82.0883 432.024C84.7208 420.869 86.4814 409.395 88.7369 398.144C101.045 396.218 113.456 395.137 125.78 393.342C128.603 383.99 131.536 374.467 135.084 365.366C126.562 356.993 117.516 348.602 109.741 339.532C114.634 328.868 119.968 318.278 125.33 307.839C137.358 308.921 149.524 310.708 161.487 312.402C166.639 302.405 172.393 292.692 177.955 282.918C171.047 273.047 164.228 263.115 157.499 253.121C160.471 249.406 163.85 245.943 166.948 242.322C171.673 236.802 176.249 231.055 181.338 225.868C190.946 228.545 203.473 234.518 213.096 238.324C220.074 229.853 228.997 221.525 237.367 214.411C233.158 203.408 228.895 192.336 225.262 181.129C234.418 173.416 244.276 166.508 253.507 158.859C262.405 165.887 271.614 172.581 280.663 179.418C291.021 172.363 301.798 165.309 312.698 159.145C310.121 147.869 308.518 136.057 306.661 124.627C317.315 120.046 327.784 115.106 337.808 109.266C345.609 118.53 354.166 127.309 362.382 136.213C372.828 133.112 383.202 129.776 393.497 126.207C395.536 114.352 396.858 102.372 398.165 90.4172C409.021 87.7879 419.998 85.5655 430.923 83.2389C437.559 93.3248 444.014 103.765 451.461 113.265C460.4 111.973 469.503 111.112 478.496 110.261C479.725 110.069 481.139 110.172 481.942 109.078C483.606 106.812 492.89 80.473 494.344 76.0683Z"/>
	<defs>
		<linearGradient id="gradient_0" gradientUnits="userSpaceOnUse" x1="445.14087" y1="506.14767" x2="947.28809" y2="548.70142">
			<stop offset="0" stop-color="#3E9F83"/>
			<stop offset="1" stop-color="#27959C"/>
		</linearGradient>
	</defs>
	<path fill="url(#gradient_0)" d="M494.344 76.0683C505.318 75.5216 516.438 75.4311 527.426 75.5138C533.128 86.3565 537.404 98.118 541.636 109.598C552.082 110.379 563.048 110.604 573.317 112.609C579.326 102.635 585.393 92.6972 591.519 82.7954C603.054 84.1683 614.961 86.4991 626.266 89.2176C627.587 96.2905 628.062 103.594 628.868 110.748C629.448 115.893 630.46 121.215 630.562 126.384C640.581 129.634 651.012 132.484 660.818 136.298C668.569 127.095 677.86 118.99 684.885 109.203C696.073 114.299 707.29 119.333 718.534 124.306C716.107 136.038 714.314 149.046 714.478 161.032C723.304 166.797 732.348 172.17 741.212 177.861C750.189 169.968 760.582 163.368 770.031 155.991C779.341 164.196 788.784 171.925 798.872 179.155C795.386 190.457 791.408 201.628 787.591 212.823C795.584 220.859 802.796 229.667 810.571 237.916C822.175 234.915 833.122 229.953 844.441 226.103C851.677 235.144 859.294 243.866 866.641 252.816C860.038 263.878 852.836 274.685 847.275 286.322C852.847 294.621 858.227 303.046 863.411 311.592C875.612 310.703 887.771 309.784 899.833 307.66C905.709 317.168 910.008 328.407 914.693 338.589C906.966 346.298 896.007 356.116 889.537 364.604C891.665 373.866 894.829 383.584 898.679 392.282C910.377 394.574 922.375 395.628 934.19 397.207C937.547 408.473 939.529 420.144 942.863 431.396C932.532 438.412 922.65 446.063 912.296 453.04C913.462 462.551 914.453 472.083 915.27 481.63C926.998 485.965 938.959 489.388 950.55 494.157C950.446 506.134 950.437 518.112 950.522 530.089C938.633 533.846 926.764 538.396 915.189 543.046C914.381 553.391 913.113 563.71 912.037 574.03C921.995 580.513 932.343 586.666 942.13 593.359C939.196 603.836 936.626 614.607 934.61 625.303C922.33 627.028 909.784 629.865 897.475 630.917C895.05 640.877 891.359 651.355 887.438 660.845C893.328 665.046 907.007 679.897 912.428 685.728C906.956 695.143 902.295 705.007 898.496 715.213C887.06 713.645 875.473 711.563 863.968 710.692C858.388 721.709 851.821 732.068 844.692 742.14C850.811 750.375 859.252 760.913 864.385 769.462C857.617 779.752 850.353 789.706 842.618 799.29C831.993 795.78 821.449 790.875 811.36 786.027C803.48 794.512 795.47 803.887 786.485 811.205C790.355 821.798 794.648 832.189 798.643 842.726C788.812 850.169 779.922 858.813 770.001 866.147C761.346 860.319 748.257 852.828 740.926 845.83C731.733 852.167 722.146 858.253 712.336 863.591C713.373 875.306 714.588 887.852 717.719 899.212C707.037 904.918 695.806 910.856 684.466 915.102C676.741 905.956 668.393 897.249 660.82 887.998C650.974 891.739 641.262 895.199 631.117 898.027C629.685 909.794 627.587 922.295 627.437 934.138C615.579 936.676 603.516 938.952 591.798 942.072C585.424 931.782 579.676 921.125 573.413 910.769C563.108 912.252 552.662 913.785 542.247 914.21C538.103 925.533 532.827 937.078 529.872 948.751C518.112 948.225 506.255 948.506 494.481 948.503C491.189 937.094 485.845 926.51 482.706 915.096C480.854 914.893 479 914.712 477.144 914.553C476.137 913.792 474.805 912.812 474.147 911.735C474.016 911.521 473.689 910.815 473.658 910.633C473.269 908.395 474.267 904.415 474.352 902.002C474.5 897.751 473.915 893.43 474.209 889.199C474.334 887.396 474.898 885.611 475.401 883.882C483.52 883.264 491.692 884.708 499.963 883.913C638.405 888.549 767.968 815.918 836.249 695.396C904.53 574.875 900.23 426.404 825.089 310.036C749.947 193.668 616.398 128.657 478.456 141.297C477.373 137.088 479.725 131.638 479.815 127.213C479.92 121.98 476.497 115.125 478.496 110.261C479.725 110.069 481.139 110.172 481.942 109.078C483.606 106.812 492.89 80.473 494.344 76.0683Z"/>
	<path fill="#62A955" d="M398.165 90.4172C409.021 87.7879 419.998 85.5655 430.923 83.2389C437.559 93.3248 444.014 103.765 451.461 113.265C460.4 111.973 469.503 111.112 478.496 110.261C476.497 115.125 479.92 121.98 479.815 127.213C479.725 131.638 477.373 137.088 478.456 141.297C282.738 159.232 134.698 326.252 140.387 522.707C146.077 719.163 303.535 877.335 499.963 883.913C491.692 884.708 483.52 883.264 475.401 883.882C474.898 885.611 474.334 887.396 474.209 889.199C473.915 893.43 474.5 897.751 474.352 902.002C474.267 904.415 473.269 908.395 473.658 910.633C473.689 910.815 474.016 911.521 474.147 911.735C474.805 912.812 476.137 913.792 477.144 914.553C468.302 913.482 459.414 912.547 450.622 911.116C444.32 921.123 438.597 931.659 433.01 942.083C421.098 939.245 409.168 936.48 397.222 933.788C395.834 922.012 394.133 910.161 393.431 898.328C383.241 894.14 372.534 891.163 362.289 887.065C354.404 895.898 346.728 904.915 339.268 914.108C328.57 908.872 317.785 903.817 306.916 898.946C308.434 887.092 309.125 875.132 311.27 863.355C302.275 857.238 292.75 851.886 283.7 845.839C273.523 852.47 263.594 859.206 253.885 866.513C243.83 859.863 234.636 851.505 225.467 843.696C228.036 832.224 233.101 820.524 237.985 809.849C229.365 802.009 221.339 793.515 213.319 785.071C202.472 789.995 191.246 794.04 180.369 798.912C172.958 790.073 165.912 780.729 159.029 771.472C166.209 762.017 172.121 750.781 177.945 740.439C171.53 731.167 165.81 721.432 160.007 711.772C148.752 713.81 137.422 715.357 126.177 717.486C120.631 707.13 115.314 696.178 110.943 685.275C119.144 676.991 127.118 667.807 135.967 660.277C132.55 650.354 128.771 640.428 125.625 630.435C113.546 628.666 101.432 627.145 89.2912 625.874C85.7744 615.053 84.3901 603.567 81.953 592.48C91.2093 585.329 101.778 577.457 112.511 572.721C110.432 563.355 109.628 552.654 109.379 543.064C98.0431 537.667 85.682 534.113 73.9439 529.662C73.3848 517.966 73.8129 506.201 73.7996 494.493C85.581 490.528 97.2931 486.36 108.931 481.992C109.608 472.324 110.523 461.953 112.717 452.521C102.363 445.907 92.1515 439.072 82.0883 432.024C84.7208 420.869 86.4814 409.395 88.7369 398.144C101.045 396.218 113.456 395.137 125.78 393.342C128.603 383.99 131.536 374.467 135.084 365.366C126.562 356.993 117.516 348.602 109.741 339.532C114.634 328.868 119.968 318.278 125.33 307.839C137.358 308.921 149.524 310.708 161.487 312.402C166.639 302.405 172.393 292.692 177.955 282.918C171.047 273.047 164.228 263.115 157.499 253.121C160.471 249.406 163.85 245.943 166.948 242.322C171.673 236.802 176.249 231.055 181.338 225.868C190.946 228.545 203.473 234.518 213.096 238.324C220.074 229.853 228.997 221.525 237.367 214.411C233.158 203.408 228.895 192.336 225.262 181.129C234.418 173.416 244.276 166.508 253.507 158.859C262.405 165.887 271.614 172.581 280.663 179.418C291.021 172.363 301.798 165.309 312.698 159.145C310.121 147.869 308.518 136.057 306.661 124.627C317.315 120.046 327.784 115.106 337.808 109.266C345.609 118.53 354.166 127.309 362.382 136.213C372.828 133.112 383.202 129.776 393.497 126.207C395.536 114.352 396.858 102.372 398.165 90.4172Z"/>
	<path fill="#196590" d="M511.482 519.921C517.659 521.919 524.354 526.583 530.023 529.845L562.318 548.427C614.871 578.243 667.167 608.508 719.2 639.219L777.385 672.773C788.434 679.146 800.731 685.161 810.681 693.148C804.635 701.2 799.503 710.045 793.647 718.262C782.796 733.348 770.748 747.536 757.622 760.69C692.468 825.673 604.267 862.265 512.247 862.49C496.549 862.543 480.587 861.051 465.067 858.758C381.265 846.231 304.558 804.576 248.419 741.109C234.52 725.272 224.5 708.731 212.114 692.055C237.276 678.295 261.926 663.649 286.796 649.369L428.192 567.841C455.877 551.805 483.248 534.947 511.482 519.921Z"/>
	<path fill="#FEFEFE" d="M498.782 573.987C506.577 573.858 514.373 573.853 522.168 573.973L527.072 588.332C529.794 588.569 532.489 589.217 535.167 589.749L544.4 577.505L565.1 584.781C565.018 590.126 565.032 595.472 565.143 600.816C567.536 602.295 570.011 603.639 572.465 605.013C576.536 601.693 580.793 598.549 584.948 595.333C590.498 600.485 596.214 605.477 601.852 610.535C600.46 615.621 598.469 620.643 596.746 625.632L600.39 630.95C605.009 629.797 609.521 628.137 614.032 626.621C618.933 633.722 623.527 641.03 627.801 648.525L617.219 659.031L620.875 668.416C625.637 669.106 630.55 669.201 635.355 669.49C636.537 677.252 637.678 685.019 638.779 692.792C634.413 694.746 630.628 697.144 626.888 700.118L627.102 709.013C630.937 711.845 635.087 714.189 639.189 716.606C638.386 724.354 637.052 732.038 635.197 739.604C630.491 739.805 625.809 740.044 621.116 740.468C619.821 743.845 618.831 747.24 617.889 750.73C621.565 754.255 625.169 757.853 628.7 761.523L617.94 780.779C613.106 779.92 608.316 778.787 603.523 777.725C601.607 780.119 599.508 782.394 597.491 784.705C599.473 789.504 601.295 794.283 602.939 799.211C596.835 803.153 591.56 808.138 585.665 812.37C581.603 809.421 577.449 806.601 573.209 803.913C570.854 804.735 568.545 805.738 566.229 806.669C565.722 812.718 565.369 818.542 566.012 824.593L545.442 830.858C542.092 826.957 538.964 822.86 535.785 818.82C533.222 819.041 530.662 819.291 528.105 819.572C526.593 824.987 525.22 830.472 521.884 835.093C514.773 834.662 507.658 834.291 500.54 833.979C498.986 829.627 497.849 825.21 496.847 820.704C493.447 820.015 490.008 819.468 486.592 818.865C485.001 822.907 482.809 826.815 480.874 830.708C473.295 828.278 465.795 825.61 458.383 822.708C458.771 818.029 459.189 813.353 459.636 808.679C456.195 806.755 452.917 804.339 449.625 802.161C446.483 805.585 443.131 808.752 439.753 811.939C432.89 807.744 426.858 802.863 420.738 797.688C422.676 793.27 425.166 789.256 427.858 785.266C425.271 782.472 422.941 779.433 420.562 776.462C415.632 778.023 410.577 779.243 405.578 780.566C402.193 774 398.132 767.747 394.266 761.455C398.182 757.97 402.075 754.461 405.946 750.927C404.424 747.461 403.109 744.017 401.94 740.416C396.865 740.405 391.779 740.134 386.707 739.953C385.296 731.809 383.962 723.705 383.4 715.45C387.7 714.147 391.848 712.78 395.975 710.995C395.968 707.572 395.816 704.14 395.719 700.717C391.613 698.511 387.148 696.928 382.82 695.213C383.419 687.119 385.01 679.087 386.192 671.059C391.027 670.752 395.851 670.472 400.658 669.84L404.591 659.873C401.242 656.551 397.729 653.468 394.106 650.45C397.626 642.754 402.34 635.477 406.745 628.269C411.03 629.473 415.236 631.015 419.449 632.449L425.855 624.905L420.845 611.092C426.729 606.665 432.638 602.271 438.572 597.91C442.732 600.692 446.86 603.239 451.263 605.626C453.716 604.513 456.063 603.109 458.422 601.809C458.457 596.59 458.364 591.371 458.141 586.157C465.041 583.901 471.713 581.162 478.433 578.43C481.468 581.95 483.871 585.986 486.297 589.935C489.334 589.415 492.359 588.783 495.383 588.193C496.668 583.47 497.805 578.785 498.782 573.987Z"/>
	<path fill="#196590" d="M503.635 608.696C556.717 604.421 603.199 644.024 607.407 697.111C611.615 750.199 571.953 796.63 518.86 800.771C465.863 804.904 419.533 765.329 415.332 712.337C411.132 659.344 450.648 612.964 503.635 608.696Z"/>
	<path fill="#FEFEFE" d="M504.161 615.743C553.353 611.786 596.424 648.489 600.321 697.686C604.217 746.883 567.46 789.909 518.258 793.745C469.143 797.573 426.209 760.895 422.319 711.784C418.43 662.673 455.055 619.694 504.161 615.743Z"/>
	<path fill="#196590" d="M491.643 635.346C497.529 629.002 501.862 627.439 510.428 627.065C516.383 626.804 521.972 627.665 526.543 631.825C534.028 638.638 537.489 649.672 543.264 657.899C547.947 655.691 552.729 653.084 557.626 651.425C551.915 662.822 545.918 674.164 541.478 686.135C529.117 683.616 516.375 681.476 505.151 675.419L522.877 670.627C518.435 663.115 514.033 655.578 509.671 648.018C503.873 658.972 497.27 669.481 490.829 680.065C484.716 675.297 478.303 671.026 471.865 666.714C478.762 657.217 484.669 647.059 491.484 637.507L497.347 639.561L498.042 639.04L491.643 635.346Z"/>
	<path fill="#4190AF" d="M498.042 639.04C502.894 641.268 506.368 645.439 510.181 649.042C504.924 646.68 501.795 643.047 497.347 639.561L498.042 639.04Z"/>
	<path fill="#196590" d="M475.306 682.082C475.799 681.984 476.397 682.084 476.901 682.11C481.624 687.177 489.465 708.328 492.739 716.009C486.912 713.505 481.161 710.83 475.492 707.987C470.065 714.829 466.061 722.341 461.922 729.986L496.23 730.024C495.944 738.003 495.829 745.987 495.885 753.971L486.941 753.976L455.207 754.003C449.563 744.572 443.899 735.561 440.541 725.019C444.425 714.867 450.677 705.697 455.958 696.223C451.113 693.868 446.418 691.411 441.89 688.481C452.991 686.133 464.272 684.767 475.306 682.082Z"/>
	<path fill="#196590" d="M534.976 715.465L535.347 715.926C536.076 720.501 534.147 726.204 533.104 730.694C544.102 731.243 562.659 732.595 572.874 729.81C575.131 729.195 577.109 727.948 579.095 726.752C579.151 734.438 579.141 743.051 573.279 748.88C565.492 756.621 550.488 754.992 540.412 754.867L533.05 754.99C534.049 760.347 534.985 765.715 535.859 771.094C526.094 762.285 516.828 752.758 507.488 743.496C516.788 734.309 525.812 724.792 534.976 715.465Z"/>
	<path fill="#196590" d="M558.958 685.443C565.283 691.386 575.136 710.462 579.649 718.69C572.571 719.858 565.297 719.934 558.14 720.093L550.642 720.517C546.288 713.054 542.086 705.502 538.041 697.867C545.029 693.743 551.912 689.481 558.958 685.443Z"/>
	<path fill="#E7B23F" d="M522.025 163.491C566.862 164.409 611.094 174.023 652.267 191.799C718.151 220.494 773.462 268.995 810.518 330.566C820.298 346.199 828.717 362.643 835.684 379.717C847.85 410.393 856.513 443.376 860.007 476.222C865.922 531.827 857.06 594.254 834.83 645.63C830.667 654.81 826.571 664.019 822.541 673.259C816.403 670.209 810.496 666.359 804.561 662.918L772.426 644.367L668.768 583.666L571.308 527.863C554.833 518.494 537.883 509.869 521.95 499.586L522.025 163.491Z"/>
	<path fill="#FEFEFE" d="M680.081 334.22C720.699 332.549 755.023 364.032 756.86 404.643C758.697 445.254 727.355 479.708 686.751 481.711C645.912 483.726 611.215 452.161 609.368 411.314C607.52 370.467 639.227 335.9 680.081 334.22Z"/>
	<path fill="#E7B23F" d="M674.138 343.038L674.511 343.109C673.815 344.773 666.53 348.419 664.743 349.835C658.419 354.847 653.135 361.361 649.033 368.281C639.025 385.166 635.779 406.46 640.795 425.474C646.878 448.53 662.61 462.366 682.472 473.967C677.83 473.146 673.39 471.96 668.897 470.539C666.921 469.851 664.966 468.926 663.057 468.068C645.769 460.295 631.91 446.875 625.222 428.984C619.674 414.211 620.28 397.832 626.904 383.51C636.144 363.56 653.961 350.475 674.138 343.038Z"/>
	<path fill="#FEFEFE" d="M765.22 420.454C784.079 420.835 800.567 431.28 813.993 443.73L807.406 444.837C790.334 447.514 776.668 446.494 760.935 439.149C762.745 433.02 763.999 426.721 765.22 420.454Z"/>
	<path fill="#FEFEFE" d="M574.328 379.717C584.33 378.78 593.653 381.119 602.692 385.213C601.228 391.148 600.458 397.444 599.776 403.511C593.339 403.548 587.421 403.099 581.128 401.691C569.065 398.54 559.097 391.678 550.396 382.961C558.374 381.381 566.218 380.318 574.328 379.717Z"/>
	<path fill="#FEFEFE" d="M598.631 419.716C599.264 419.67 598.852 419.644 599.796 420.137C602.332 425.019 602.608 431.975 603.399 437.395C587.881 445.13 574.051 446.042 556.937 443.905C554.768 443.859 552.422 443.33 550.259 443.037C563.749 428.799 579.278 422.074 598.631 419.716Z"/>
	<path fill="#FEFEFE" d="M610.386 452.402L611.174 452.462C614.983 454.724 620.335 464.193 623.415 468.05C613.208 479.368 601.996 485.017 587.606 489.623C584.267 490.575 580.841 491.226 577.446 491.945C582.927 474.57 595.333 462.014 610.386 452.402Z"/>
	<path fill="#FEFEFE" d="M684.195 273.83C685.739 275.386 686.865 277.485 687.842 279.438C694.939 293.627 696.594 310.855 691.656 325.944L682.375 326.052L675.842 326.32C670.619 306.677 674.47 291.346 684.195 273.83Z"/>
	<path fill="#FEFEFE" d="M576.566 328.11C594.878 331.104 608.695 339.943 621.784 352.63C619.479 355.422 617.358 358.337 615.225 361.261L610.443 368.164C609.128 367.655 607.815 367.13 606.559 366.486C592.499 359.274 581.191 342.91 576.566 328.11Z"/>
	<path fill="#FEFEFE" d="M742.728 288.934C743.12 289.355 743.327 289.692 743.432 290.266C743.924 292.946 743.6 296.105 743.502 298.846C742.953 314.135 737.543 326.57 728.72 338.878C725.605 337.18 722.462 335.536 719.29 333.948L712.557 331.155C717.091 312.658 727.281 299.814 742.728 288.934Z"/>
	<path fill="#FEFEFE" d="M789.129 330.678C789.443 330.764 789.658 331.058 789.913 331.26C789.886 331.399 789.861 331.539 789.832 331.677C786.53 347.343 769.149 360.087 756.706 368.308C755.158 365.955 753.531 363.646 751.942 361.32C749.622 358.05 746.874 355.295 743.987 352.53C756.152 339.191 771.729 333.774 789.129 330.678Z"/>
	<path fill="#FEFEFE" d="M671.718 491.361L689.465 492.303C690.756 508.669 689.794 521.847 683.274 537.125C682.244 539.56 680.904 541.858 679.641 544.179C671.062 525.457 667.199 511.758 671.718 491.361Z"/>
	<path fill="#FEFEFE" d="M782.064 381.71C793.177 380.753 804.725 383.669 815.123 387.295C807.65 392.679 800.147 396.691 791.624 400.162C783.127 403.268 775.072 404.482 766.045 404.522C765.979 397.839 765.082 391.19 763.373 384.729C769.523 383.125 775.756 382.348 782.064 381.71Z"/>
	<path fill="#FEFEFE" d="M635.006 478.192C641.293 481.609 647.808 484.59 654.505 487.112C649.324 499.245 642.796 508.905 634.185 518.84C630.938 522.157 627.559 525.262 624.101 528.354C622.761 508.198 625.186 495.971 635.006 478.192Z"/>
	<path fill="#FEFEFE" d="M624.086 290.723C638.657 297.212 648.936 316.18 654.687 330.11L648.44 333.279L637.118 339.721C626.527 325.098 622.846 308.589 624.086 290.723Z"/>
	<path fill="#FEFEFE" d="M752.319 454.826C755.039 455.941 757.665 458.394 759.855 460.308C770.844 469.912 778.002 480.977 784 494.127C780.199 493.419 776.495 492.562 772.762 491.551C758.987 486.795 748.64 481.08 739.478 469.561C743.721 464.617 748.001 459.706 752.319 454.826Z"/>
	<path fill="#FEFEFE" d="M725.47 480.958C725.625 481.107 725.788 481.248 725.936 481.404C735.491 491.497 736.085 516.283 735.969 529.415C732.195 526.681 728.803 523.516 725.453 520.288C716.279 510.981 710.06 500.596 705.844 488.253C712.649 486.278 719.05 483.968 725.47 480.958Z"/>
	<path fill="#62A955" d="M489.736 164.206C493.61 163.828 497.599 163.963 501.494 163.931L501.998 499.344C482.721 512.625 460.464 524.048 440.023 535.639L356.407 583.584C357.242 559.95 362.943 536.471 368.875 513.69C368.941 513.691 369.006 513.694 369.072 513.694C398.005 513.875 421.393 504.583 442.226 484.398C468.466 458.909 483.505 424.041 484.037 387.464C484.779 323.028 442.268 252.899 398.634 208.332C396.284 260.235 354.472 298.263 326.511 338.153C301.572 373.734 293.18 398.987 300.888 442.778C294.504 435.994 288.374 428.944 282.152 422.01C270.591 408.706 258.911 395.307 250.295 379.832C246.452 372.928 243.495 365.532 239.829 358.52C212.036 394.21 187.835 439.041 188.395 485.505C188.752 515.135 199.706 543.892 221.199 564.625C238.113 580.941 259.709 587.849 282.955 587.42C286.642 597.827 290.577 608.144 294.757 618.363C284.98 624.612 274.676 630.152 264.673 636.038C243.716 648.433 222.682 660.699 201.573 672.833C179.922 628.385 166.97 585.371 163.739 535.891C157.434 442.308 188.867 350.097 251.02 279.851C312.063 211.113 397.958 169.502 489.736 164.206Z"/>
	<path fill="#3E793C" d="M406.451 231.634C407.07 232.077 407.019 232.021 407.699 232.63C415.278 239.43 421.743 250.254 427.242 258.843C449.817 294.108 468.444 332.878 471.257 375.225C473.445 408.161 462.806 442.703 440.876 467.6C423.877 486.9 400.617 499.84 374.771 501.582C368.171 501.93 361.533 501.513 355.204 499.509C340.492 494.852 329.43 483.408 322.477 469.952C317.154 459.58 313.366 448.488 311.234 437.025C298.99 371.994 356.059 325.041 386.885 275.112C395.376 261.36 401.577 247.018 406.451 231.634Z"/>
	<path fill="#FEFEFE" d="M417.146 296.393C424.028 305.404 422.092 343.78 421.423 355.491C430.358 348.658 439.416 342.027 448.109 334.881C440.943 347.851 432.349 355.974 420.182 364.108C418.169 384.766 412.216 404.201 404.986 423.547C420.715 415.43 434.653 404.234 445.971 390.624C438.895 408.928 426.891 419.781 410.585 430.114C407.798 431.83 404.584 433.143 401.631 434.575C388.25 458.14 378.412 482.584 354.376 497.73C359.89 489.529 365.593 481.32 370.63 472.818C394.515 432.502 412.021 385.931 416.239 339.047C417.519 324.811 416.85 310.646 417.146 296.393Z"/>
	<path fill="#3E793C" d="M237.261 377.958C240.404 381.487 242.269 387.133 244.702 391.253C247.468 395.935 250.81 400.33 254.116 404.642C278.582 436.554 315.17 466.74 321.833 508.495C324.359 524.322 323.552 545.7 313.677 559.139C306.793 568.508 296.375 573.581 285.066 575.362C269.139 577.688 252.909 574.138 239.408 565.373C219.46 552.473 205.967 530.617 201.063 507.576C191.189 461.19 212.644 415.874 237.261 377.958Z"/>
	<path fill="#FEFEFE" d="M234.514 430.788C238.184 438.376 239.036 457.377 241.04 466.7C249.38 505.495 268.338 542.195 293.538 572.69C278.34 564.566 268.598 552.981 259.78 538.48C254.654 537.117 250.587 535.198 246.16 532.287C236.729 525.964 230.346 518.426 224.148 509.064C228.66 511.443 232.732 514.829 236.838 517.847C242.626 522.101 248.335 526.098 254.608 529.633C247.429 515.014 242.641 500.147 238.283 484.477C227.806 478.454 220.543 472.324 213.903 462.155C221.334 467.392 229.012 472.087 236.797 476.773C232.105 461.333 231.249 446.576 234.514 430.788Z"/>
	<path fill="#3E793C" d="M349.151 507.174L355.902 509.922C353.541 519.497 350.534 528.878 348.341 538.521C344.191 556.765 341.72 575.159 339.785 593.75L335.811 596.164C334.389 597.031 332.879 597.793 331.418 598.598C331.504 567.61 338.925 536.271 349.151 507.174Z"/>
	<path fill="#3E793C" d="M301.327 581.917L302.65 582.067C306.82 586.563 311.408 601.163 312.72 607.49C312.232 608.842 310.375 609.796 309.229 610.588L308.524 610.518C305.486 607.355 299.202 589.053 298.28 584.228C298.91 582.911 300.075 582.609 301.327 581.917Z"/>
</svg>
